<?xml version="1.0" encoding="UTF-8" standalone="no"?>
<svg
   height="16"
   viewBox="0 0 16 16"
   width="16"
   version="1.1"
   id="svg1"
   sodipodi:docname="UtilityAIDistanceVector3Sensor.svg"
   inkscape:version="1.3 (0e150ed6c4, 2023-07-21)"
   xmlns:inkscape="http://www.inkscape.org/namespaces/inkscape"
   xmlns:sodipodi="http://sodipodi.sourceforge.net/DTD/sodipodi-0.dtd"
   xmlns="http://www.w3.org/2000/svg"
   xmlns:svg="http://www.w3.org/2000/svg">
  <defs
     id="defs1" />
  <sodipodi:namedview
     id="namedview1"
     pagecolor="#ffffff"
     bordercolor="#000000"
     borderopacity="0.25"
     inkscape:showpageshadow="2"
     inkscape:pageopacity="0.0"
     inkscape:pagecheckerboard="0"
     inkscape:deskcolor="#d1d1d1"
     inkscape:zoom="50.3125"
     inkscape:cx="8"
     inkscape:cy="8"
     inkscape:window-width="1920"
     inkscape:window-height="1011"
     inkscape:window-x="0"
     inkscape:window-y="0"
     inkscape:window-maximized="1"
     inkscape:current-layer="svg1" />
  <path
     d="M 1,6 C 1,7.3333328 3,7.3333328 3,6 V 4 C 3,2.6666672 1,2.6666672 1,4 Z M 7,5 C 7,6.3333328 9,6.3333328 9,5 9,3.6666672 7,3.6666672 7,5 Z m 6,1 c 0,1.3333328 2,1.3333328 2,0 V 4 C 15,2.6666672 13,2.6666672 13,4 Z"
     fill="#775599"
     id="path1"
     sodipodi:nodetypes="sssssssssssss" />
  <path
     d="m 11,7 v 2 h 2 a 1,1 0 0 1 -1,1 v 2 a 1,1 0 0 1 0,2 h -1 v 2 h 1 A 3,3 0 0 0 14.232,11 3,3 0 0 0 15,9 V 7 Z M 1,9 v 6 H 3 A 3,3 0 0 0 6,12 V 9 H 4 v 3 A 1,1 0 0 1 3,13 V 9 Z m 9,6 V 13 H 9 a 1,1 0 0 1 0,-2 h 1 V 9 H 9 a 3,3 0 0 0 0,6 z"
     fill="#de66f0"
     id="path1-2"
     style="fill:#775599;fill-opacity:1" />
</svg>
