<?xml version="1.0" encoding="UTF-8" standalone="no"?>
<svg
   height="16"
   viewBox="0 0 16 16"
   width="16"
   version="1.1"
   id="svg3"
   sodipodi:docname="UtilityAIDistanceVector2Sensor.svg"
   inkscape:version="1.3 (0e150ed6c4, 2023-07-21)"
   xmlns:inkscape="http://www.inkscape.org/namespaces/inkscape"
   xmlns:sodipodi="http://sodipodi.sourceforge.net/DTD/sodipodi-0.dtd"
   xmlns="http://www.w3.org/2000/svg"
   xmlns:svg="http://www.w3.org/2000/svg">
  <defs
     id="defs3" />
  <sodipodi:namedview
     id="namedview3"
     pagecolor="#ffffff"
     bordercolor="#000000"
     borderopacity="0.25"
     inkscape:showpageshadow="2"
     inkscape:pageopacity="0.0"
     inkscape:pagecheckerboard="0"
     inkscape:deskcolor="#d1d1d1"
     inkscape:zoom="50.3125"
     inkscape:cx="8"
     inkscape:cy="8"
     inkscape:window-width="1920"
     inkscape:window-height="1011"
     inkscape:window-x="0"
     inkscape:window-y="0"
     inkscape:window-maximized="1"
     inkscape:current-layer="svg3" />
  <path
     d="m 12.0121,8 v 2 h 1 a 1,1 0 0 1 0,2 2,2 0 0 0 -2,2 v 2 h 5 v -2 h -3 a 3,3 0 0 0 0,-6 z m -11,2 v 6 h 2 a 3,3 0 0 0 3,-3 v -3 h -2 v 3 a 1,1 0 0 1 -1,1 v -4 z m 9,6 v -2 h -1 a 1,1 0 0 1 0,-2 h 1 v -2 h -1 a 3,3 0 0 0 0,6 z"
     fill="#775599"
     id="path2" />
  <path
     d="m 12,8 v 2 h 1 a 1.0000002,1.0000002 0 0 1 0,2 2,2 0 0 0 -2,2 v 2 h 5 v -2 h -3 a 3.0000002,3.0000002 0 0 0 0,-6 z"
     fill="#775599"
     fill-opacity="0.4"
     id="path3" />
  <path
     d="m 1,4.9999996 c 0,1.3333328 2,1.3333328 2,0 v -2 c 0,-1.3333328 -2,-1.3333328 -2,0 z m 6,-1 c 0,1.3333328 2,1.3333328 2,0 0,-1.3333328 -2,-1.3333328 -2,0 z m 6,1 c 0,1.3333328 2,1.3333328 2,0 v -2 c 0,-1.3333328 -2,-1.3333328 -2,0 z"
     fill="#775599"
     id="path1"
     sodipodi:nodetypes="sssssssssssss" />
</svg>
